<?xml version="1.0" encoding="utf-8"?>
<!-- Generator: Adobe Illustrator 27.2.0, SVG Export Plug-In . SVG Version: 6.00 Build 0)  -->
<svg version="1.1" id="Capa_1" xmlns="http://www.w3.org/2000/svg" xmlns:xlink="http://www.w3.org/1999/xlink" x="0px" y="0px"
	 viewBox="0 0 841.9 596.5" style="enable-background:new 0 0 841.9 596.5;" xml:space="preserve">
<style type="text/css">
	.st0{fill:#0D1149;}
	.st1{fill:#ECDABF;}
</style>
<rect y="0" class="st0" width="841.9" height="596.5"/>
<path class="st1" d="M323.3,251.2h187.4c11.8,0,21.3,9.5,21.3,21.3v200.3c0,11.8-9.5,21.3-21.3,21.3H323.3
	c-11.8,0-21.3-9.5-21.3-21.3V272.5C302,260.7,311.5,251.2,323.3,251.2z"/>
<path class="st0" d="M349.2,287.9h18.9c11.8,0,21.3,9.5,21.3,21.3v18.9c0,11.8-9.5,21.3-21.3,21.3h-18.9c-11.8,0-21.3-9.5-21.3-21.3
	v-18.9C327.9,297.4,337.5,287.9,349.2,287.9z"/>
<path class="st0" d="M457.2,287.9h18.9c11.8,0,21.3,9.5,21.3,21.3v18.9c0,11.8-9.5,21.3-21.3,21.3h-18.9c-11.8,0-21.3-9.5-21.3-21.3
	v-18.9C435.9,297.4,445.5,287.9,457.2,287.9z"/>
<path class="st1" d="M303.6,264.3c35.5-49.4,70.9-98.8,106.4-148.2c40.1,49.4,80.3,98.8,120.4,148.2H303.6z"/>
<path class="st0" d="M401,398h40c6,0,10.8,4.8,10.8,10.8V478c0,6-4.8,10.8-10.8,10.8h-40c-6,0-10.8-4.8-10.8-10.8v-69.1
	C390.2,402.9,395,398,401,398z"/>
</svg>
