<?xml version="1.0" encoding="UTF-8"?>
<svg id="Capa_1" data-name="Capa 1" xmlns="http://www.w3.org/2000/svg" viewBox="0 0 841.89 596.48">
  <defs>
    <style>
      .cls-1, .cls-2 {
        fill: #ecdabf;
      }

      .cls-2 {
        font-family: Bauhaus93, 'Bauhaus 93';
        font-size: 300px;
      }

      .cls-3 {
        fill: #0d1149;
      }
    </style>
  </defs>
  <rect class="cls-3" width="841.89" height="596.48"/>
  <path class="cls-1" d="m434,221.36v-24.88h13.8c8.95,0,16.2-7.25,16.2-16.2v-15c0-8.95-7.25-16.2-16.2-16.2h-73.59c-8.95,0-16.2,7.25-16.2,16.2v15c0,8.95,7.25,16.2,16.2,16.2h12.39v25.84c-46.86,11.22-81.59,52.16-81.59,100.95,0,57.44,48.13,104,107.5,104s107.5-46.56,107.5-104c0-50.31-36.93-92.28-86-101.92Z"/>
  <text/>
  <text class="cls-2" transform="translate(101 390.78)"><tspan x="0" y="0" xml:space="preserve">n    u</tspan></text>
  <ellipse class="cls-3" cx="412.5" cy="321.53" rx="68.25" ry="64.25"/>
</svg>