<?xml version="1.0" encoding="UTF-8"?>
<svg id="Capa_1" data-name="Capa 1" xmlns="http://www.w3.org/2000/svg" viewBox="0 0 841.89 596.48">
  <defs>
    <style>
      .cls-1 {
        fill: #ecdabf;
      }

      .cls-2 {
        fill: #0d1149;
      }
    </style>
  </defs>
  <rect class="cls-2" width="841.89" height="596.48"/>
  <path class="cls-1" d="m498.86,273.22c-.17-10.21-1.86-25.64-10.06-41.04-15.96-29.98-46.35-40.57-67.85-44.28v-21.6h33.03c5.7,0,10.32-4.62,10.32-10.32v-16.08c0-5.7-4.62-10.32-10.32-10.32h-109.11c-5.7,0-10.32,4.62-10.32,10.32v16.08c0,5.7,4.62,10.32,10.32,10.32h31.8v21.89c-28.02,5.41-59.37,21.11-73.02,52.63-5.54,12.79-6.8,25.03-6.88,33.84v229.46h205.28c-1.06-76.97-2.12-153.93-3.19-230.9Z"/>
  <path class="cls-2" d="m402.61,390.39c7.18-5.79,16.17-14.24,24.66-25.92,9.85-13.54,15.46-26.51,18.72-36,.45-1.23,3.3-9.56-1.32-17.34-4.3-7.25-13.3-11.05-22.44-9.3-3.01,1.59-7.65,4.51-11.95,9.55-3.8,4.44-5.9,8.84-7.06,11.86,0,0-9.79-23.53-30.67-18.15,0,0-13.68,3.22-10.08,24.82s40.14,60.48,40.14,60.48h0Z"/>
  <path class="cls-1" d="m479.59,503.39c10.68-15.9,24.81-28.8,37.5-43,19.13-21.04,37.69-42.66,54.64-65.5,12.62-17.09,24.56-34.91,33.61-54.18l2.81-6.51,2.47-6.64c.71-2.25,1.35-4.53,2.04-6.8l.98.21c-10.26,49.17-58.53,106.33-91.73,143.77-12.97,13.97-25.2,28.82-41.61,39.36l-.69-.72h-.02Z"/>
  <path class="cls-1" d="m520.96,388.81s-27.82,31.72-1.33,79.81c0,0,24.1-45.66,1.33-79.81Z"/>
  <path class="cls-1" d="m548.03,359.68s-27.82,31.72-1.33,79.81c0,0,24.1-45.66,1.33-79.81Z"/>
  <path class="cls-1" d="m577.77,330.9s-27.53,27.94-3.12,68.71c0,0,24.27-39.84,3.12-68.71Z"/>
  <path class="cls-1" d="m604.01,299.38s-20.45,22.33-4.58,61.45c0,0,18.55-33.36,4.58-61.45Z"/>
  <path class="cls-1" d="m488.65,501.03s35.87-38.9,75.91-24.67c0,0-21.34,38.79-75.91,24.67"/>
  <path class="cls-1" d="m596.91,431.87s-17.82,37.38-64.71,23.34c0,0,30.26-37.39,64.71-23.34Z"/>
  <path class="cls-1" d="m622.05,388.83s-14.74,28.23-57.3,22.77c0,0,25.9-29.43,57.3-22.77"/>
  <path class="cls-1" d="m643.72,354.01s-14.74,28.23-57.3,22.77c0,0,25.9-29.43,57.3-22.77"/>
</svg>