<?xml version="1.0" encoding="utf-8"?>
<!-- Generator: Adobe Illustrator 27.2.0, SVG Export Plug-In . SVG Version: 6.00 Build 0)  -->
<svg version="1.1" id="Capa_1" xmlns="http://www.w3.org/2000/svg" xmlns:xlink="http://www.w3.org/1999/xlink" x="0px" y="0px"
	 viewBox="0 0 841.9 596.5" style="enable-background:new 0 0 841.9 596.5;" xml:space="preserve">
<style type="text/css">
	.st0{fill:#0D1149;}
	.st1{fill:#8C91C4;}
</style>
<rect y="0" class="st0" width="841.9" height="596.5"/>
<path class="st1" d="M421,439.1c-29.7-23.9-71.7-65.5-96.9-128.6c-6-15-10.3-29.5-13.4-43.1c-1-9.9-1.2-18.6-1.1-25.9
	c16-45.4,56.7-75.6,100.1-75.4c54.3,0.2,92.5,48.4,96.5,71c1.5,8.4,1,15.9,0,21.6c-1.4,8.8-3.2,17.8-5.4,27
	C484.8,351.7,451.8,402.7,421,439.1L421,439.1z"/>
<ellipse class="st0" cx="408.3" cy="254.5" rx="44.3" ry="48.1"/>
</svg>
